# Blender v2.79 (sub 0) OBJ File: ''
# www.blender.org
mtllib Right_Arrow.mtl
o object1
v 2.140174 2.140174 -1.323411
v 2.140174 2.140174 1.323412
v 0.000000 -0.000000 1.323412
v -1.871587 1.871587 1.323412
v -1.871587 1.871587 -1.323411
v 0.000000 0.000000 -1.323412
v 5.989078 5.989078 1.323413
v 0.000000 -0.000000 1.323412
v 0.000000 0.000000 -1.323412
v 5.989078 5.989078 -1.323411
v 4.117491 7.860665 1.323413
v 5.989078 5.989078 1.323413
v 5.989078 5.989078 -1.323411
v 4.117491 7.860665 -1.323410
v -1.871587 5.614760 1.323413
v 0.000000 3.743174 1.323412
v 0.000000 3.743174 -1.323411
v -1.871587 5.614760 -1.323411
v -3.743174 3.743174 1.323412
v -1.871587 5.614760 1.323413
v -1.871587 5.614760 -1.323411
v -3.743174 3.743174 -1.323411
v -1.871587 1.871587 1.323412
v -3.743174 3.743174 1.323412
v -3.743174 3.743174 -1.323411
v -1.871587 1.871587 -1.323411
vt 0.814168 0.143752
vt 0.826793 0.128329
vt 0.816186 0.144791
vt 0.815752 0.144778
vt 0.826144 0.156114
vt 0.814351 0.146511
vt 0.815851 0.145179
vt 0.816343 0.145292
vt 0.125564 0.447900
vt 0.000082 0.447900
vt 0.000082 0.322418
vt 0.125564 0.322418
vt 0.662626 0.000082
vt 0.810325 0.143518
vt 0.811518 0.147232
vt 0.662626 0.322254
vt 0.880464 0.125443
vt 0.999918 0.041121
vt 0.987365 0.219005
vt 0.885690 0.151924
vt 0.251210 0.447900
vt 0.125728 0.447900
vt 0.125728 0.322418
vt 0.251210 0.322418
vt 0.000082 0.000082
vt 0.000082 0.322254
vn 0.0000 -0.0000 1.0000
vn -0.0000 0.0000 -1.0000
vn -0.7071 -0.7071 -0.0000
vn 0.7071 -0.7071 -0.0000
vn 0.7071 0.7071 0.0000
vn -0.7071 0.7071 0.0000
usemtl Green
s off
f 23/1/1 16/2/1 15/3/1 24/4/1
f 17/5/2 26/6/2 25/7/2 18/8/2
f 3/9/3 4/10/3 5/11/3 6/12/3
f 2/13/4 8/14/4 9/15/4 1/16/4
f 11/17/5 12/18/5 13/19/5 14/20/5
f 14/20/6 17/5/6 16/2/6 11/17/6
f 15/3/5 16/2/5 17/5/5 18/8/5
f 19/21/6 20/22/6 21/23/6 22/24/6
f 23/1/3 24/4/3 25/7/3 26/6/3
f 7/25/4 2/13/4 1/16/4 10/26/4
f 9/15/2 26/6/2 17/5/2 1/16/2
f 2/13/1 16/2/1 23/1/1 8/14/1
f 11/17/1 16/2/1 2/13/1 12/18/1
f 13/19/2 1/16/2 17/5/2 14/20/2
